<?xml version="1.0" standalone="no"?>
<!DOCTYPE svg PUBLIC "-//W3C//DTD SVG 20010904//EN"
 "http://www.w3.org/TR/2001/REC-SVG-20010904/DTD/svg10.dtd">
<svg version="1.0" xmlns="http://www.w3.org/2000/svg"
 width="500.000000pt" height="500.000000pt" viewBox="0 0 500.000000 500.000000"
 preserveAspectRatio="xMidYMid meet">

<g transform="translate(0.000000,500.000000) scale(0.100000,-0.100000)"
fill="#000000" stroke="none">
<path d="M0 2500 l0 -2500 2500 0 2500 0 0 2500 0 2500 -2500 0 -2500 0 0
-2500z m2448 1698 c20 -20 14 -65 -10 -82 -25 -18 -36 -13 -48 20 -19 50 24
96 58 62z m-56 -195 c-5 -29 -22 -30 -22 -2 0 18 -3 19 -15 9 -11 -9 -11 -4 3
28 l17 40 11 -26 c5 -15 8 -37 6 -49z m114 5 c10 -33 7 -109 -5 -121 -16 -16
-26 20 -12 49 8 17 8 31 1 44 -13 23 -13 50 -1 50 5 0 13 -10 17 -22z m-438
-83 c1 -22 -2 -47 -7 -55 -8 -12 -13 -12 -30 4 -35 31 -25 99 13 94 17 -2 22
-11 24 -43z m382 3 c0 -33 -111 -155 -130 -143 -11 7 -14 -18 -4 -28 10 -10
54 15 55 32 0 11 2 12 6 3 6 -15 23 -6 23 13 0 8 15 35 32 60 31 44 33 45 39
23 3 -13 1 -29 -5 -37 -6 -8 14 2 44 23 45 31 56 35 58 22 7 -35 -101 -138
-127 -121 -5 3 -9 -3 -8 -12 0 -13 9 -18 28 -18 15 0 26 1 24 3 -5 5 75 82 85
82 6 0 10 -8 10 -18 0 -24 -35 -56 -51 -46 -8 4 -10 3 -5 -4 7 -12 -14 -36
-74 -85 -40 -32 -61 -32 -75 1 -5 12 -14 22 -20 22 -14 1 -64 69 -72 98 -4 17
2 31 23 54 28 29 72 59 61 41 -3 -5 -2 -15 3 -22 5 -10 10 -3 15 20 7 29 9 31
16 14 5 -14 8 -15 8 -4 2 28 41 54 41 27z m-252 -97 c9 -11 22 -26 29 -34 7
-8 16 -17 20 -18 4 -2 26 -26 49 -54 l41 -50 -22 -43 c-12 -23 -24 -40 -27
-37 -3 3 -13 -6 -22 -20 -9 -14 -23 -25 -31 -25 -17 0 -20 -21 -5 -36 7 -7 2
-15 -17 -25 -16 -8 -32 -19 -38 -26 -5 -7 -30 -28 -54 -47 -33 -25 -49 -32
-61 -26 -21 11 -120 153 -120 172 0 8 14 27 30 43 17 16 30 39 30 51 0 31 27
51 50 37 23 -15 40 1 40 39 0 39 24 94 47 107 26 15 41 13 61 -8z m604 -120
c73 -71 85 -87 75 -100 -9 -12 -9 -13 0 -7 9 5 11 2 7 -8 -3 -9 -11 -16 -18
-16 -6 0 -17 -9 -24 -20 -13 -21 -38 -29 -26 -7 4 7 3 9 -2 4 -5 -5 -8 -12 -7
-15 3 -13 -20 -32 -38 -32 -11 0 -19 -4 -19 -10 0 -5 -6 -10 -14 -10 -10 0
-13 -8 -10 -27 3 -15 6 -29 8 -30 1 -1 39 27 84 62 103 82 114 83 111 10 -1
-30 -6 -52 -10 -50 -4 3 -12 -2 -19 -10 -10 -12 -9 -16 1 -20 26 -9 52 1 60
23 6 15 5 21 -4 19 -8 -1 -12 11 -12 33 0 29 4 36 23 38 30 4 64 -26 60 -52
-2 -13 9 -31 28 -48 17 -16 37 -42 44 -58 12 -29 11 -33 -21 -66 -18 -18 -37
-34 -42 -34 -4 0 -19 -13 -33 -30 -16 -19 -31 -27 -41 -23 -9 4 -14 2 -11 -3
3 -5 -10 -25 -29 -44 l-35 -35 5 28 c5 33 -10 36 -23 5 -8 -21 -9 -21 -10 -3
-1 19 -2 19 -14 3 -7 -10 -16 -15 -19 -11 -4 3 -3 11 3 17 6 8 3 12 -11 13
-14 1 -19 -5 -20 -25 -1 -16 -3 -20 -6 -10 -5 18 -43 21 -44 3 0 -5 -4 -1 -8
10 -5 11 -13 20 -20 20 -6 0 -11 5 -12 10 0 6 -7 14 -15 18 -8 5 -11 13 -8 19
4 6 3 8 -3 5 -16 -10 -34 18 -26 39 6 17 8 16 14 -6 l7 -25 1 28 c1 31 -13 36
-28 10 -8 -16 -11 -15 -20 10 -14 35 -14 39 0 74 10 25 12 26 18 9 7 -17 9
-17 33 5 29 27 50 77 27 64 -8 -5 -30 -21 -50 -37 -20 -15 -41 -28 -46 -28
-11 0 -112 112 -153 167 -17 24 -21 39 -17 62 6 31 63 89 118 123 15 9 29 27
31 40 2 14 10 23 20 23 10 0 25 8 35 17 20 21 17 23 155 -111z m-732 99 c0
-11 -4 -20 -9 -20 -6 0 -9 9 -8 20 1 11 5 20 9 20 4 0 8 -9 8 -20z m-96 1 c8
-12 -3 -41 -15 -41 -5 0 -9 11 -9 25 0 25 14 34 24 16z m387 -204 c-10 -9 -11
-8 -5 6 3 10 9 15 12 12 3 -3 0 -11 -7 -18z m106 -100 c67 -84 93 -123 93
-139 0 -15 -44 -59 -79 -78 -14 -7 -36 -23 -50 -36 -14 -13 -29 -24 -33 -24
-4 0 -35 -25 -70 -55 -34 -30 -72 -55 -83 -55 -14 1 -36 24 -70 76 -27 42 -58
88 -67 103 -10 14 -18 33 -18 42 0 16 40 56 89 89 12 8 45 32 73 52 27 21 54
35 59 32 5 -3 9 -19 9 -35 0 -17 -3 -28 -7 -26 -5 3 -9 -11 -11 -30 -1 -19 -7
-43 -12 -53 -6 -10 -10 -28 -10 -40 0 -18 4 -21 24 -16 14 3 27 2 31 -3 3 -6
18 -9 33 -8 20 2 27 8 28 25 l1 23 -21 -21 c-26 -24 -33 -25 -33 -5 0 8 3 13
5 10 3 -3 11 3 18 13 9 13 10 30 4 58 -5 21 -11 52 -14 69 -3 16 -10 31 -15
33 -5 2 -7 12 -4 23 6 22 51 49 69 42 6 -2 34 -32 61 -66z m-541 16 c11 -16
41 -58 67 -94 l47 -66 -21 -27 c-18 -23 -20 -30 -9 -56 7 -16 16 -28 20 -25 5
3 6 -4 3 -15 -4 -16 -2 -19 11 -14 9 3 16 12 16 19 0 6 8 19 19 29 22 20 31
12 55 -49 13 -34 46 -171 46 -194 0 -4 -33 -38 -74 -74 -83 -74 -106 -79 -106
-20 0 29 -2 33 -14 24 -11 -9 -16 -9 -22 0 -4 7 -3 9 3 6 11 -7 28 22 18 31
-3 3 -5 -1 -5 -9 0 -12 -2 -11 -10 1 -9 13 -11 13 -20 0 -7 -11 -10 -11 -10
-2 0 7 -4 11 -9 8 -5 -4 -12 0 -15 6 -5 10 -7 10 -12 1 -10 -23 -24 -13 -24
17 0 17 -6 31 -12 31 -29 3 -33 4 -35 14 -1 6 10 8 25 7 21 -3 24 -1 15 9 -8
8 -9 18 -2 30 12 23 9 38 -14 61 -18 19 -41 15 -34 -5 4 -13 -49 -57 -69 -57
-15 0 -134 163 -134 183 0 24 11 47 22 47 6 0 8 -6 5 -13 -7 -19 24 -36 48
-26 11 4 14 8 6 8 -26 2 -51 33 -51 66 0 38 19 58 53 53 17 -2 46 15 101 60
43 34 84 62 90 62 7 0 21 -12 32 -27z m1225 -395 c25 -242 25 -311 -1 -353
-24 -38 -136 -146 -144 -137 -3 3 -6 1 -6 -5 0 -6 -9 -13 -21 -16 -13 -4 -18
-10 -13 -18 4 -7 3 -10 -4 -5 -6 3 -18 -4 -28 -16 -9 -13 -14 -16 -11 -7 3 9
-1 16 -9 16 -7 0 -11 -4 -8 -9 3 -4 -3 -8 -14 -8 -17 0 -21 12 -31 103 -6 56
-16 167 -22 246 l-12 144 39 32 39 33 3 -31 c2 -18 8 -36 13 -42 15 -15 11
-34 -15 -68 -31 -42 -38 -97 -21 -177 l13 -65 0 70 c0 39 1 79 2 90 1 19 2 19
12 -2 6 -13 15 -23 21 -23 5 0 4 7 -3 15 -11 13 -10 18 6 31 18 14 18 15 -3 9
-18 -5 -23 -2 -23 12 0 21 20 56 20 35 0 -7 4 -11 8 -8 4 2 6 45 5 95 -3 78
-2 90 12 85 10 -4 15 0 15 14 0 13 28 44 77 85 43 36 79 64 81 62 2 -2 12 -86
23 -187z m-604 105 c-3 -10 -5 -4 -5 12 0 17 2 24 5 18 2 -7 2 -21 0 -30z
m-867 -72 l53 -73 9 -117 c5 -77 5 -117 -2 -119 -5 -2 -10 -11 -10 -20 0 -11
3 -13 8 -6 4 6 17 10 29 9 17 -1 20 2 13 10 -8 9 -4 12 12 11 13 -1 25 2 28 6
3 4 11 3 18 -1 14 -8 2 -56 -14 -56 -5 0 -7 -6 -6 -14 3 -10 -1 -10 -13 3 -9
9 -21 13 -27 10 -7 -4 -8 -2 -4 4 8 14 4 15 -18 6 -9 -3 -14 -10 -11 -14 8
-13 18 -120 11 -120 -3 0 -18 18 -32 40 -21 31 -24 43 -15 54 11 13 6 46 -8
46 -4 0 -12 -5 -18 -11 -7 -7 -12 -6 -17 6 -3 9 -2 14 3 11 4 -3 6 5 4 19 -4
16 2 29 16 41 12 10 21 27 21 37 0 16 -5 18 -26 13 -22 -6 -25 -4 -20 9 4 11
1 15 -12 13 -15 -3 -18 12 -28 112 -15 144 -16 187 -6 175 5 -6 33 -43 62 -84z
m807 59 c15 -13 19 -26 15 -42 -6 -22 -6 -22 -17 5 -6 15 -14 24 -18 21 -9 -9
-38 16 -31 27 9 15 29 10 51 -11z m103 -91 c22 -29 40 -56 40 -60 0 -8 -119
-103 -121 -97 -8 31 -8 59 1 53 5 -3 10 -14 10 -23 0 -11 3 -13 11 -5 8 8 8
17 -1 33 -7 12 -10 33 -7 46 2 14 0 27 -4 30 -14 8 -11 21 7 28 8 3 12 2 9 -3
-3 -5 5 -17 17 -25 12 -9 18 -16 13 -16 -6 -1 0 -9 12 -19 12 -10 19 -22 15
-26 -4 -5 -1 -5 7 0 12 7 10 11 -7 25 -12 10 -19 20 -16 23 3 3 -4 10 -15 17
-12 6 -19 15 -16 20 3 5 1 11 -4 14 -5 3 -7 15 -4 26 6 24 3 27 53 -41z m-110
7 c0 -2 -12 -11 -27 -20 l-28 -17 24 20 c23 21 31 25 31 17z m-633 -23 c0 -9
-4 -10 -14 -2 -7 6 -13 12 -13 14 0 1 6 2 13 2 8 0 14 -6 14 -14z m4 -106
c-10 -9 -11 -8 -5 6 3 10 9 15 12 12 3 -3 0 -11 -7 -18z m934 13 c10 -16 55
-478 48 -496 -9 -24 -173 -164 -237 -203 -31 -18 -62 -31 -70 -28 -14 6 -28
74 -44 214 -9 81 4 90 15 10 5 -43 8 -48 14 -27 6 22 7 19 9 -15 2 -32 4 -35
8 -15 5 20 7 17 13 -20 l6 -45 1 50 c1 28 -5 61 -13 75 -16 27 -20 64 -6 56 4
-3 17 1 27 9 18 14 18 14 -3 10 -15 -2 -24 2 -28 15 -8 24 -35 35 -35 13 0
-11 -3 -13 -9 -7 -8 8 -15 94 -12 152 1 26 94 121 161 167 25 17 64 45 88 63
46 34 57 38 67 22z m-535 -10 c9 14 68 -106 101 -202 22 -67 20 -74 -37 -112
-18 -11 -51 -36 -73 -54 l-41 -34 0 27 c0 14 4 24 10 20 5 -3 3 7 -5 22 -16
31 -41 38 -50 15 -6 -15 -8 -15 -16 3 -7 17 -8 15 -6 -10 1 -19 8 -30 17 -30
10 0 16 -12 18 -34 3 -27 -2 -39 -20 -53 -13 -9 -27 -18 -33 -18 -15 0 -57 79
-49 92 4 6 3 8 -3 5 -10 -7 -93 113 -93 134 0 6 15 22 32 37 18 15 77 67 132
116 60 54 102 84 104 76 3 -9 6 -10 12 0z m237 4 c-3 -3 -2 -17 3 -30 12 -32
0 -30 -24 3 -11 14 -14 23 -8 19 6 -3 13 -2 17 4 3 5 9 10 12 10 4 0 4 -3 0
-6z m-623 -51 c4 -5 12 -8 17 -8 24 0 10 -21 -21 -31 -42 -14 -58 0 -33 28 18
20 26 22 37 11z m-206 -89 l2 -39 -15 34 c-18 41 -19 54 -2 49 6 -3 13 -22 15
-44z m332 32 c0 -2 -8 -10 -17 -17 -16 -13 -17 -12 -4 4 13 16 21 21 21 13z
m-89 -63 c10 -11 10 -14 2 -9 -9 5 -13 -1 -13 -23 0 -16 4 -33 10 -36 5 -3 15
-16 20 -28 8 -16 5 -14 -10 6 -20 25 -40 28 -40 6 0 -6 5 -7 10 -4 6 4 10 -9
10 -32 0 -21 7 -47 15 -57 8 -11 15 -16 15 -10 0 11 20 -18 20 -30 0 -5 -9 -1
-20 9 -19 18 -29 9 -11 -10 11 -12 2 -77 -9 -70 -4 3 -7 21 -5 40 2 20 -1 35
-7 35 -6 0 -8 -12 -5 -27 5 -26 4 -27 -10 -8 -8 11 -19 29 -25 40 -10 18 -10
19 6 6 15 -12 19 -12 33 2 14 14 14 18 -8 48 -12 18 -18 29 -11 25 7 -4 12 -1
12 7 0 9 -9 13 -26 11 -14 -1 -23 1 -19 4 4 4 9 6 12 4 7 -4 33 46 33 64 0 8
-5 13 -11 12 -6 -2 -13 2 -16 8 -2 7 4 11 14 10 10 0 17 5 16 12 -4 17 2 15
18 -5z m-191 -54 c0 -5 -4 -9 -8 -9 -5 0 -9 7 -9 15 0 8 4 12 9 9 4 -3 8 -9 8
-15z m1518 -29 c-7 -10 -14 -18 -15 -16 -6 6 9 36 18 36 5 0 4 -9 -3 -20z
m-1408 -78 c0 -4 -5 1 -11 11 -6 9 -13 16 -17 13 -4 -2 -8 7 -9 21 -1 24 0 24
18 -6 10 -17 19 -35 19 -39z m610 38 c0 -11 -6 -20 -13 -20 -15 0 -61 -49 -54
-57 7 -6 50 16 59 31 13 19 16 2 21 -94 3 -52 8 -102 10 -110 3 -8 8 -45 11
-82 4 -52 2 -69 -9 -75 -7 -5 -13 -17 -12 -28 1 -14 -3 -19 -15 -17 -11 2 -23
-9 -33 -27 -20 -39 -19 -41 9 -41 16 0 27 7 31 20 4 11 11 17 17 14 7 -5 9 -2
6 8 -4 8 -2 21 3 29 6 10 9 5 9 -18 0 -28 -10 -41 -82 -101 -76 -62 -164 -127
-146 -107 12 13 -24 63 -49 68 -18 3 -23 0 -23 -15 0 -11 5 -16 10 -13 6 3 10
-1 10 -9 0 -8 9 -21 20 -29 20 -14 20 -14 -5 -25 -13 -6 -27 -7 -30 -2 -3 4
-8 42 -11 83 -6 63 -4 78 10 92 19 20 13 34 -7 17 -10 -9 -14 -9 -14 1 0 6 -3
39 -7 72 -7 55 -5 63 14 80 12 11 28 32 36 47 8 16 19 28 24 28 18 0 11 -20
-15 -44 -28 -26 -33 -56 -10 -56 8 0 19 17 26 38 10 34 14 38 36 34 23 -4 24
-3 14 16 -15 29 -14 37 4 22 9 -7 16 -11 18 -9 22 39 26 49 17 49 -5 0 -10 -4
-10 -10 0 -5 -11 -9 -25 -8 -23 2 -25 6 -25 51 0 45 2 48 21 42 20 -7 21 -7 2
13 -23 24 -38 10 -47 -48 -4 -26 -12 -40 -21 -40 -8 0 -15 -4 -15 -10 0 -5
-13 -10 -29 -10 -25 0 -29 3 -26 22 3 12 17 35 32 51 34 35 242 197 254 197 5
0 9 -9 9 -20z m-454 -19 c-4 -5 -1 -11 6 -13 8 -3 6 -7 -5 -11 -12 -5 -17 -1
-17 13 0 11 5 20 11 20 5 0 8 -4 5 -9z m-169 -53 c-3 -8 -6 -5 -6 6 -1 11 2
17 5 13 3 -3 4 -12 1 -19z m198 1 c-4 -5 0 -9 7 -10 10 0 10 -2 -1 -6 -11 -5
-11 -7 0 -14 10 -6 6 -9 -13 -9 -23 0 -28 4 -28 24 0 13 6 26 13 29 16 6 29
-2 22 -14z m-176 -68 c-2 -5 -15 6 -28 27 l-23 37 27 -26 c15 -15 26 -32 24
-38z m1211 29 c0 13 1 13 10 0 5 -8 9 -22 9 -30 0 -10 -3 -9 -8 4 -6 16 -10
11 -19 -25 -17 -69 -23 -108 -13 -84 5 11 13 36 18 55 7 28 9 17 8 -53 0 -79
-1 -85 -13 -60 l-12 28 5 -31 c5 -24 0 -38 -20 -63 -15 -17 -22 -31 -15 -31 6
0 8 -4 5 -10 -3 -5 -13 -10 -21 -10 -9 0 -12 5 -8 11 4 8 0 9 -15 4 -33 -10
-25 2 17 25 20 12 29 19 19 16 -11 -4 -31 -8 -45 -11 -20 -4 -17 0 13 14 29
15 42 17 47 8 9 -15 10 -5 2 17 -4 11 -10 13 -18 8 -13 -11 -66 -24 -66 -17 0
2 15 11 34 19 35 15 53 54 43 93 -15 55 -17 78 -6 63 8 -12 9 -9 5 15 l-5 30
14 -30 c8 -16 14 -25 15 -20 0 6 3 21 6 35 4 17 3 21 -4 12 -7 -11 -10 -11
-15 3 -4 9 -3 13 3 10 6 -3 10 0 10 7 0 9 3 9 10 -2 9 -13 10 -13 10 0z m-995
-64 c22 -32 43 -52 50 -49 15 5 15 -21 0 -34 -4 -4 -5 -2 -1 5 4 6 2 12 -3 12
-19 0 -17 -50 2 -63 8 -5 8 -10 2 -13 -6 -2 -9 -36 -7 -84 4 -68 2 -80 -12
-80 -19 0 -21 -30 -3 -49 10 -11 10 -13 0 -7 -8 5 -13 1 -13 -11 -1 -17 -1
-17 -11 0 -6 9 -14 15 -20 12 -5 -4 -9 -2 -9 4 0 5 8 11 18 14 13 3 10 6 -10
11 -23 7 -28 14 -29 40 0 17 -2 41 -3 54 -2 12 3 22 10 22 13 0 26 25 17 34
-9 9 -43 7 -43 -1 0 -5 -14 -16 -32 -26 -25 -14 -33 -15 -39 -5 -19 30 19 95
48 84 20 -8 22 6 15 86 -4 42 -6 81 -4 87 9 26 42 8 77 -43z m28 -2 c-3 -8 -6
-14 -7 -12 -1 2 -7 11 -14 20 -11 14 -10 16 7 11 12 -3 17 -11 14 -19z m-339
-5 c-3 -5 -10 -7 -15 -3 -5 3 -7 10 -3 15 3 5 10 7 15 3 5 -3 7 -10 3 -15z
m124 -15 c-4 -3 -12 5 -18 18 -12 22 -12 22 6 6 10 -10 15 -20 12 -24z m1209
-6 c-3 -7 -5 -2 -5 12 0 14 2 19 5 13 2 -7 2 -19 0 -25z m-1136 1 c9 -17 8
-20 -2 -14 -9 6 -11 3 -6 -9 4 -9 3 -15 -2 -12 -14 9 -22 -24 -11 -45 19 -35
2 -20 -20 19 -12 20 -16 32 -9 25 10 -10 15 -7 26 13 7 15 10 30 7 35 -3 5 -3
9 0 9 3 0 10 -10 17 -21z m982 -176 c1 -18 4 -33 7 -33 5 0 5 -96 1 -145 -2
-20 -2 -20 -16 -1 -25 33 -17 3 10 -36 14 -20 25 -48 25 -61 0 -14 7 -30 15
-37 8 -7 13 -16 10 -20 -3 -5 -1 -11 3 -14 9 -5 134 88 140 104 2 5 -2 11 -7
15 -6 3 -11 11 -11 18 0 6 7 1 16 -11 l16 -23 23 25 24 26 6 -43 c10 -74 25
-329 24 -407 0 -41 -5 -80 -11 -87 -5 -7 -7 -17 -3 -22 7 -12 -21 -71 -34 -71
-5 0 -9 -16 -8 -35 1 -43 -35 -85 -72 -85 -20 0 -31 9 -45 35 l-19 34 -43 -29
c-23 -17 -45 -30 -48 -30 -8 0 -15 53 -22 174 -5 86 -3 117 5 112 8 -5 8 0 1
19 -7 17 -7 24 0 20 13 -8 13 16 1 48 -7 17 -5 39 3 68 24 80 27 101 16 94 -5
-3 -10 -14 -10 -23 -1 -9 -9 -27 -20 -40 -14 -17 -25 -21 -44 -16 -25 6 -26 4
-26 -37 0 -60 17 -86 26 -41 4 17 12 32 18 32 6 0 6 4 -2 9 -10 6 -8 10 8 14
19 5 21 2 16 -16 -3 -12 -6 -28 -6 -35 0 -7 -4 -11 -9 -7 -5 3 -12 1 -16 -5
-3 -5 -1 -10 4 -10 6 0 11 -11 11 -25 0 -27 -9 -32 -28 -13 -9 9 -10 0 -7 -36
3 -26 2 -54 -3 -62 -6 -11 -31 223 -35 324 0 7 -5 11 -11 9 -7 -2 -11 -33 -11
-75 0 -40 -4 -72 -8 -72 -5 0 -7 34 -5 75 3 70 0 80 -24 76 -5 0 -8 4 -8 10 0
6 6 9 13 6 6 -2 18 3 25 12 12 14 13 14 8 -1 -3 -10 -2 -18 3 -18 5 0 8 35 8
78 -1 62 7 106 42 227 23 83 47 166 54 185 l11 35 9 -65 c5 -36 9 -80 10 -97z
m144 135 c-3 -8 -6 -5 -6 6 -1 11 2 17 5 13 3 -3 4 -12 1 -19z m-1370 -40 c-3
-8 -6 -5 -6 6 -1 11 2 17 5 13 3 -3 4 -12 1 -19z m1473 -68 c0 -5 -4 -10 -10
-10 -5 0 -10 5 -10 10 0 6 5 10 10 10 6 0 10 -4 10 -10z m-1044 -34 c0 -19 -4
-32 -8 -30 -9 6 -7 64 2 64 3 0 6 -15 6 -34z m1180 19 c4 -8 10 -12 15 -9 5 3
6 -2 3 -10 -3 -9 -1 -16 6 -16 6 0 9 -4 5 -9 -3 -5 0 -13 6 -16 11 -8 -27 -55
-44 -55 -5 0 2 9 17 21 14 11 23 25 20 30 -3 6 -15 3 -27 -8 -22 -18 -22 -18
-4 3 9 11 17 24 17 29 0 4 -8 1 -17 -6 -15 -11 -16 -11 -5 1 16 18 15 25 -4
44 -8 9 -10 16 -4 16 6 0 13 -7 16 -15z m-485 -4 c-13 -3 -32 -22 -42 -41 -18
-34 -18 -34 7 -69 l26 -36 -25 27 c-14 15 -28 24 -31 21 -10 -11 -6 27 5 50
20 38 41 57 63 56 19 -1 19 -2 -3 -8z m-58 -8 c-7 -2 -13 -14 -14 -26 0 -12
-3 -16 -6 -9 -7 18 4 42 19 41 10 0 10 -2 1 -6z m271 -34 c-10 -12 -35 -29
-55 -39 -35 -18 -36 -18 -34 0 1 11 5 23 10 27 4 5 5 2 0 -6 -10 -18 31 -6 65
19 33 25 37 25 14 -1z m243 -45 c-3 -3 -12 -4 -19 -1 -8 3 -5 6 6 6 11 1 17
-2 13 -5z m-1320 -34 c-1 -16 -5 -30 -9 -30 -4 0 -5 -8 -1 -17 3 -10 3 -15 -2
-11 -4 4 -16 -9 -26 -30 -23 -44 -24 -52 -3 -26 15 19 15 18 11 -4 -5 -22 -5
-22 24 -5 15 9 26 19 24 21 -3 3 -12 -1 -21 -9 -14 -11 -15 -9 -12 17 3 27 5
29 43 26 46 -4 54 -9 61 -43 5 -23 31 -248 32 -279 1 -8 4 -50 8 -92 l7 -78
-36 0 c-68 0 -242 22 -265 33 -18 9 -23 18 -20 39 3 15 1 25 -4 22 -4 -3 -8 1
-8 10 0 8 -3 21 -6 30 -4 12 0 16 17 17 24 2 24 2 2 6 -17 3 -23 11 -23 29 0
14 4 23 8 20 4 -2 14 0 22 5 13 9 13 10 0 8 -28 -3 -41 1 -36 10 3 5 -5 12
-19 15 -30 8 -32 22 -5 31 14 5 18 13 15 33 -5 28 -25 202 -25 215 0 4 14 7
32 7 30 0 31 -1 12 -15 -18 -14 -17 -15 8 -5 21 7 31 6 42 -5 10 -11 17 -12
22 -4 3 6 24 9 45 7 38 -3 39 -3 39 29 0 20 7 36 18 42 27 16 31 13 29 -19z
m1273 27 c0 -2 -10 -12 -22 -23 l-23 -19 19 23 c18 21 26 27 26 19z m-1096
-47 c-1 -22 -2 -56 -3 -76 -1 -24 -5 -34 -13 -31 -7 2 -14 9 -14 15 -3 23 -4
24 -19 12 -12 -10 -14 -8 -10 9 2 12 11 31 19 43 9 12 16 33 16 45 0 13 6 23
13 23 8 0 12 -14 11 -40z m1143 24 c-3 -3 -12 -4 -19 -1 -8 3 -5 6 6 6 11 1
17 -2 13 -5z m-1182 -14 c3 -5 1 -10 -4 -10 -6 0 -11 5 -11 10 0 6 2 10 4 10
3 0 8 -4 11 -10z m515 -5 c19 -22 8 -25 -12 -3 -10 10 -14 18 -9 18 5 0 14 -7
21 -15z m147 -17 c-3 -7 -5 -2 -5 12 0 14 2 19 5 13 2 -7 2 -19 0 -25z m-196
-81 c-10 -9 -11 -8 -5 6 3 10 9 15 12 12 3 -3 0 -11 -7 -18z m-131 -1 c0 -8
-5 -18 -10 -21 -7 -5 -8 -11 -1 -19 5 -6 13 -40 17 -75 5 -50 4 -62 -6 -56 -9
5 -8 -2 3 -21 22 -40 42 -303 24 -320 -9 -9 -38 -10 -112 -3 -133 11 -193 26
-210 53 -13 20 -60 371 -53 401 2 10 17 -4 41 -36 20 -28 35 -54 32 -59 -3 -4
2 -21 10 -36 8 -16 15 -24 15 -17 0 6 3 20 6 30 5 15 4 15 -5 3 -9 -12 -11
-10 -11 11 0 21 6 28 26 33 32 8 83 41 154 100 58 47 80 56 80 32z m94 -13 c4
-4 13 -8 19 -8 26 -2 107 -30 107 -37 0 -4 -8 -4 -17 -1 -15 6 -16 4 -6 -8 10
-13 10 -16 -2 -16 -7 0 -14 3 -13 6 2 21 -5 27 -29 27 -19 -1 -27 4 -25 13 3
12 0 12 -12 1 -10 -8 -16 -9 -16 -2 0 7 -15 16 -32 21 -30 8 -31 9 -7 10 14 1
29 -2 33 -6z m111 -13 c3 -6 -1 -7 -9 -4 -18 7 -21 14 -7 14 6 0 13 -4 16 -10z
m-73 -35 c10 -4 15 -12 11 -18 -4 -6 -11 -4 -19 7 -11 15 -13 10 -19 -38 -4
-31 -5 -67 -3 -81 3 -14 2 -25 -2 -25 -4 0 -7 -7 -7 -15 0 -8 6 -15 14 -15 8
0 13 -11 13 -27 0 -23 2 -25 11 -13 8 12 10 8 6 -17 -3 -32 15 -53 28 -32 9
14 -5 69 -17 69 -6 0 -5 7 3 16 17 21 19 101 2 101 -7 0 -13 -11 -13 -23 0
-13 -5 -26 -12 -30 -8 -5 -9 2 -4 27 3 19 11 36 16 37 14 5 12 32 -2 33 -7 0
-4 4 7 8 11 5 25 4 32 -1 7 -5 17 -7 23 -3 5 3 10 1 10 -4 0 -6 -4 -11 -10
-11 -17 0 -11 -30 10 -57 11 -14 20 -38 20 -53 0 -15 13 -44 31 -66 17 -22 30
-32 29 -24 -5 31 0 60 10 60 6 0 10 -12 10 -27 0 -16 9 -41 20 -58 11 -16 20
-41 20 -55 0 -14 7 -46 16 -71 10 -27 14 -57 10 -73 -5 -22 -12 -26 -45 -26
-37 0 -62 16 -74 50 -5 13 -6 13 -6 -1 -1 -8 4 -20 11 -27 9 -9 5 -12 -19 -12
-17 0 -45 3 -63 6 -30 6 -31 9 -25 38 20 87 22 105 12 99 -6 -4 -8 0 -5 8 3 8
2 23 -3 34 -6 15 -8 10 -8 -20 -1 -22 -4 -64 -7 -92 -6 -47 -9 -53 -31 -53
-13 0 -25 6 -28 13 -3 12 -15 137 -19 207 -1 19 -5 41 -9 48 -5 7 -3 12 3 12
6 0 8 5 5 10 -3 6 -1 10 5 10 8 0 11 18 8 54 -1 30 0 52 5 49 4 -2 7 5 7 16 0
10 3 27 6 35 5 12 2 15 -10 10 -9 -3 -13 -10 -10 -15 3 -5 0 -9 -5 -9 -14 0
-14 6 -1 31 10 18 27 20 62 4z m203 -19 c0 -15 -4 -21 -9 -16 -5 5 -6 16 -3
24 9 22 12 20 12 -8z m-613 0 c7 4 8 2 4 -5 -9 -13 -26 -5 -25 12 0 9 2 8 6
-1 2 -6 10 -9 15 -6z m602 -112 c3 -8 2 -12 -4 -9 -6 3 -10 10 -10 16 0 14 7
11 14 -7z m37 -157 c-8 -8 -11 -3 -11 19 1 25 2 27 11 11 8 -14 8 -22 0 -30z
m-902 -299 c34 -65 65 -118 67 -118 7 0 -7 234 -16 263 -7 20 -6 27 4 27 9 0
15 -30 19 -112 9 -154 9 -218 -2 -218 -5 0 -41 63 -80 139 -50 97 -71 149 -70
172 l1 34 7 -35 c4 -19 35 -88 70 -152z m-4 170 c2 -7 5 -39 8 -72 3 -52 2
-56 -9 -35 -7 13 -14 35 -14 49 0 18 -3 21 -9 12 -7 -11 -10 -10 -15 3 -12 33
-7 55 14 55 11 0 22 -6 25 -12z m45 -32 c0 -8 -4 -18 -10 -21 -5 -3 -10 3 -10
14 0 12 5 21 10 21 6 0 10 -6 10 -14z m563 -33 c3 -5 10 -73 16 -153 11 -131
21 -213 35 -277 3 -13 2 -23 -2 -23 -4 0 -13 -13 -20 -30 -17 -36 -9 -79 25
-137 23 -41 28 -89 9 -87 -8 1 -46 58 -96 144 -8 13 -11 13 -26 -2 -15 -15
-16 -23 -6 -54 16 -53 4 -63 -29 -23 -27 32 -28 33 -29 10 0 -20 -2 -21 -15
-11 -19 15 -28 -4 -21 -43 5 -29 -2 -34 -24 -14 -12 10 -12 9 -1 -5 7 -9 19
-40 26 -69 l14 -51 -25 23 c-14 13 -35 41 -47 61 -11 21 -26 38 -33 38 -15 0
-20 40 -34 260 -6 91 -13 171 -15 177 -2 7 4 17 13 23 16 11 16 11 0 6 -10 -3
-18 -1 -18 4 0 6 4 10 9 10 5 0 7 9 4 20 -4 13 5 28 27 47 61 52 205 152 225
156 11 2 23 5 27 6 4 0 9 -2 11 -6z m-563 -76 c0 -44 -3 -58 -10 -47 -13 20
-13 123 0 115 6 -3 10 -34 10 -68z m712 -31 c5 -79 28 -119 61 -107 31 11 65
65 73 117 3 24 11 44 16 44 13 0 0 -75 -22 -125 -58 -134 -150 -88 -150 76 0
79 17 75 22 -5z m95 49 c7 -4 -34 -107 -42 -108 -6 -1 -11 26 -13 61 l-3 63
28 -7 c15 -4 29 -8 30 -9z m-583 -109 c25 -47 38 -121 16 -86 -16 25 -12 -10
5 -40 8 -14 14 -38 15 -55 0 -30 0 -30 -26 13 -14 24 -28 41 -31 38 -6 -5 35
-77 50 -87 5 -3 8 -8 7 -10 -1 -2 1 -21 5 -42 4 -21 5 -40 3 -42 -2 -3 -22 27
-44 65 -21 39 -43 70 -47 70 -5 0 -6 -3 -4 -7 70 -122 97 -176 102 -206 4 -20
5 -37 2 -37 -12 0 -115 198 -121 232 -4 21 -14 42 -24 47 -16 10 -16 10 1 11
10 0 20 -7 23 -15 4 -8 10 -15 15 -15 6 0 5 9 -1 20 -9 16 -8 18 5 14 10 -4
15 0 15 11 0 9 -5 13 -10 10 -14 -9 -25 24 -12 37 12 12 5 38 -16 55 -15 12
-10 43 6 43 5 0 17 -18 27 -39 10 -22 24 -42 32 -45 12 -5 -21 64 -50 101 -5
7 -6 17 -2 24 10 15 27 -3 59 -65z m-76 -48 c16 -16 15 -33 -1 -19 -8 6 -17 8
-20 4 -4 -3 -7 1 -7 10 0 20 11 22 28 5z m-32 -65 c-6 -15 -9 -15 -16 -3 -6 9
-5 17 3 22 16 10 21 2 13 -19z m641 -8 c53 28 39 -10 -19 -49 -33 -22 -38 -23
-38 -8 0 15 -2 15 -10 2 -8 -13 -10 -13 -10 2 0 9 7 23 15 32 8 8 15 23 16 33
0 15 2 14 9 -4 8 -21 11 -21 37 -8z m-649 -58 c2 -15 -1 -27 -6 -27 -12 0 -33
46 -24 54 12 13 27 -1 30 -27z m32 -49 c0 -11 7 -26 15 -32 8 -6 39 -56 70
-110 40 -71 55 -108 53 -129 -3 -25 -15 -8 -86 119 -53 96 -80 154 -76 166 7
23 24 13 24 -14z"/>
<path d="M2317 3836 c-10 -8 -14 -16 -10 -19 5 -3 14 3 21 14 14 22 13 23 -11
5z"/>
<path d="M2171 3536 c-9 -10 -9 -16 -1 -21 6 -4 14 -4 17 -1 4 3 1 6 -7 6 -10
0 -10 3 0 15 7 8 10 15 7 15 -2 0 -10 -6 -16 -14z"/>
<path d="M2669 3468 c-3 -10 -7 -38 -5 -38 1 0 9 9 19 20 14 17 14 20 2 20 -8
0 -15 -1 -16 -2z"/>
<path d="M3042 3340 c0 -14 2 -19 5 -12 2 6 2 18 0 25 -3 6 -5 1 -5 -13z"/>
<path d="M2955 3301 c-3 -5 -1 -12 5 -16 5 -3 10 1 10 9 0 18 -6 21 -15 7z"/>
<path d="M2989 3293 c-13 -16 -12 -17 4 -4 9 7 17 15 17 17 0 8 -8 3 -21 -13z"/>
<path d="M2760 3220 c-23 -7 -23 -8 -3 -9 12 -1 25 4 28 9 3 6 5 10 3 9 -2 -1
-14 -5 -28 -9z"/>
<path d="M2852 3209 c2 -6 8 -10 13 -10 5 0 11 4 13 10 2 6 -4 11 -13 11 -9 0
-15 -5 -13 -11z"/>
<path d="M2301 3301 c-11 -7 -9 -11 9 -21 17 -9 25 -9 34 0 6 6 7 11 1 10 -21
-5 -36 0 -30 10 8 12 4 12 -14 1z"/>
<path d="M2430 3295 c-7 -9 -11 -18 -8 -20 3 -3 11 1 18 10 7 9 11 18 8 20 -3
3 -11 -1 -18 -10z"/>
<path d="M1960 3279 c0 -12 -3 -19 -7 -16 -3 4 -14 0 -23 -8 -15 -14 -15 -21
4 -95 11 -44 24 -80 27 -80 11 0 29 59 23 74 -3 7 2 16 11 20 12 4 17 -2 22
-26 5 -26 7 -28 13 -12 18 47 22 85 9 82 -7 -2 -18 7 -24 20 -7 13 -22 32 -34
43 -21 20 -21 20 -21 -2z"/>
<path d="M1862 3230 c0 -14 2 -19 5 -12 2 6 2 18 0 25 -3 6 -5 1 -5 -13z"/>
<path d="M2056 3119 c-22 -32 -11 -50 25 -37 33 11 33 12 19 39 -14 25 -25 24
-44 -2z"/>
<path d="M2045 2980 c-16 -7 -17 -9 -3 -9 9 -1 20 4 23 9 7 11 7 11 -20 0z"/>
<path d="M3045 3200 c10 -11 20 -20 23 -20 3 0 -3 9 -13 20 -10 11 -20 20 -23
20 -3 0 3 -9 13 -20z"/>
<path d="M3015 3130 c3 -5 8 -10 11 -10 2 0 4 5 4 10 0 6 -5 10 -11 10 -5 0
-7 -4 -4 -10z"/>
<path d="M2970 3070 c-9 -5 -9 -9 -1 -14 6 -4 16 -4 23 0 6 4 8 3 4 -4 -3 -6
-2 -13 4 -17 5 -3 7 -17 4 -31 -3 -13 -3 -32 1 -41 4 -10 7 -43 7 -73 0 -42 1
-48 6 -25 5 18 10 25 15 18 4 -6 4 -19 1 -30 -5 -16 -4 -16 5 -2 7 11 7 27 1
50 -15 52 -12 86 9 101 12 9 17 19 12 27 -6 10 -10 9 -15 -4 -8 -22 -26 -9
-26 19 0 25 -28 39 -50 26z"/>
<path d="M2911 3034 c0 -11 3 -14 6 -6 3 7 2 16 -1 19 -3 4 -6 -2 -5 -13z"/>
<path d="M3105 3040 c3 -5 8 -10 11 -10 2 0 4 5 4 10 0 6 -5 10 -11 10 -5 0
-7 -4 -4 -10z"/>
<path d="M2853 3033 c9 -2 23 -2 30 0 6 3 -1 5 -18 5 -16 0 -22 -2 -12 -5z"/>
<path d="M3090 3016 c0 -8 8 -17 18 -19 16 -4 16 -5 0 -6 -10 0 -18 -7 -18
-13 0 -9 -4 -8 -10 2 -8 12 -10 10 -10 -9 0 -16 4 -22 15 -17 12 4 15 -4 15
-41 l0 -46 -22 19 c-21 18 -21 17 1 -8 20 -23 23 -35 19 -73 -6 -48 -4 -52 17
-32 12 12 20 125 16 212 -1 24 -41 54 -41 31z m27 -208 c-3 -7 -5 -2 -5 12 0
14 2 19 5 13 2 -7 2 -19 0 -25z"/>
<path d="M2850 3010 c0 -5 5 -10 10 -10 6 0 10 5 10 10 0 6 -4 10 -10 10 -5 0
-10 -4 -10 -10z"/>
<path d="M2953 2869 c3 -19 3 -28 0 -21 -2 6 -8 12 -13 12 -12 0 0 -37 16 -51
8 -7 14 -30 14 -55 0 -24 5 -44 11 -44 5 0 8 -4 4 -9 -3 -5 0 -13 6 -17 9 -5
10 9 4 52 -4 32 -8 79 -10 103 -1 29 -8 47 -20 54 -16 9 -17 6 -12 -24z"/>
<path d="M2545 3054 c11 -8 19 -18 18 -22 -1 -4 1 -9 3 -11 2 -2 4 2 4 10 0
18 -19 39 -34 39 -6 0 -2 -7 9 -16z"/>
<path d="M2560 2851 c0 -6 5 -13 10 -16 6 -3 10 1 10 9 0 9 -4 16 -10 16 -5 0
-10 -4 -10 -9z"/>
<path d="M2740 2829 c0 -5 5 -7 10 -4 6 3 10 2 10 -4 0 -5 -6 -12 -12 -14 -8
-3 -6 -6 5 -6 9 -1 17 -6 17 -13 0 -6 2 -9 5 -6 8 8 -13 58 -25 58 -5 0 -10
-5 -10 -11z"/>
<path d="M2560 2789 c0 -10 -5 -19 -11 -19 -5 0 -7 -4 -4 -10 3 -5 2 -10 -2
-10 -5 0 -9 -9 -9 -19 0 -15 4 -17 12 -10 9 7 19 4 33 -10 24 -24 31 -11 24
45 -6 44 -8 47 -28 50 -9 1 -15 -6 -15 -17z"/>
<path d="M2709 2783 c-13 -16 -12 -17 4 -4 9 7 17 15 17 17 0 8 -8 3 -21 -13z"/>
<path d="M2643 2718 c1 -8 -6 -12 -18 -10 -20 2 -20 2 -1 -12 10 -9 23 -13 29
-9 6 4 8 -11 5 -40 -3 -26 -2 -44 3 -41 18 11 8 -11 -18 -40 l-28 -31 27 24
26 23 5 -24 c7 -36 8 92 1 135 -4 22 -12 37 -20 37 -8 0 -13 -6 -11 -12z"/>
<path d="M2492 2696 c7 -8 15 -12 17 -11 5 6 -10 25 -20 25 -5 0 -4 -6 3 -14z"/>
<path d="M2619 2653 c-13 -16 -12 -17 4 -4 16 13 21 21 13 21 -2 0 -10 -8 -17
-17z"/>
<path d="M2558 2563 c7 -3 16 -2 19 1 4 3 -2 6 -13 5 -11 0 -14 -3 -6 -6z"/>
<path d="M2642 2520 c0 -14 2 -19 5 -12 2 6 2 18 0 25 -3 6 -5 1 -5 -13z"/>
<path d="M2253 2935 c0 -22 2 -30 4 -17 2 12 2 30 0 40 -3 9 -5 -1 -4 -23z"/>
<path d="M2262 2825 c0 -16 2 -22 5 -12 2 9 2 23 0 30 -3 6 -5 -1 -5 -18z"/>
<path d="M2300 2816 c0 -2 8 -10 18 -17 15 -13 16 -12 3 4 -13 16 -21 21 -21
13z"/>
<path d="M2160 2741 c0 -12 5 -21 10 -21 6 0 10 6 10 14 0 8 -4 18 -10 21 -5
3 -10 -3 -10 -14z"/>
<path d="M2272 2730 c0 -14 2 -19 5 -12 2 6 2 18 0 25 -3 6 -5 1 -5 -13z"/>
<path d="M2329 2641 c12 -7 10 -14 -8 -36 -25 -33 -26 -39 -4 -65 18 -20 39
-28 28 -10 -3 6 -2 10 3 10 5 0 12 12 15 27 6 31 -17 83 -36 83 -8 0 -8 -3 2
-9z"/>
<path d="M2275 2600 c3 -5 8 -10 11 -10 2 0 4 5 4 10 0 6 -5 10 -11 10 -5 0
-7 -4 -4 -10z"/>
<path d="M2270 2535 c-9 -11 -9 -15 -1 -15 7 0 9 -4 6 -10 -3 -5 -1 -10 4 -10
6 0 11 11 11 25 0 29 -3 31 -20 10z"/>
<path d="M2366 2504 c-3 -9 -3 -20 0 -25 8 -13 -6 -70 -16 -64 -4 3 -11 -2
-14 -11 -4 -10 -2 -13 6 -8 7 5 9 2 5 -8 -4 -12 -1 -14 13 -11 20 5 44 48 43
76 0 12 4 16 15 12 11 -4 12 -2 4 7 -6 7 -11 18 -12 23 -3 16 -10 19 -10 4 -1
-10 -4 -9 -14 4 -12 16 -14 16 -20 1z"/>
<path d="M2410 2379 c-11 -6 -12 -9 -2 -9 7 0 10 -4 7 -10 -3 -5 -2 -10 3 -10
13 0 23 28 14 34 -5 3 -14 1 -22 -5z"/>
<path d="M2240 2366 c0 -19 28 -28 48 -15 15 9 15 10 -1 5 -11 -3 -20 0 -23 9
-8 19 -24 20 -24 1z"/>
<path d="M2375 2359 c-4 -6 -2 -16 5 -22 10 -9 11 -9 6 0 -3 6 -1 13 6 15 9 3
9 6 1 11 -7 4 -15 2 -18 -4z"/>
<path d="M2212 2325 c-15 -32 -15 -45 -1 -45 6 0 9 7 5 15 -3 9 0 15 9 15 17
0 19 9 7 28 -6 9 -12 5 -20 -13z"/>
<path d="M2155 2301 c-3 -5 -1 -12 5 -16 5 -3 10 1 10 9 0 18 -6 21 -15 7z"/>
<path d="M2286 2298 c2 -3 -4 -14 -13 -24 -17 -17 -18 -17 -21 4 -5 30 -22 28
-20 -3 1 -13 4 -22 7 -20 2 3 13 -2 23 -12 15 -13 18 -13 18 -2 0 8 10 15 22
16 43 4 52 51 9 49 -16 0 -27 -4 -25 -8z"/>
<path d="M2335 2240 c4 -6 11 -8 16 -5 14 9 11 15 -7 15 -8 0 -12 -5 -9 -10z"/>
<path d="M2225 2200 c-14 -16 -15 -20 -4 -20 16 0 39 19 39 32 0 14 -16 9 -35
-12z"/>
<path d="M2277 2189 c-6 -10 -17 -19 -24 -19 -7 0 -13 -7 -13 -15 0 -18 4 -18
33 -3 12 6 28 14 36 18 23 10 24 27 1 33 -14 4 -25 -1 -33 -14z"/>
<path d="M2367 2172 c-25 -27 -21 -47 4 -23 12 11 19 25 17 31 -2 7 -10 5 -21
-8z"/>
<path d="M2183 2157 c2 -6 13 -14 25 -18 17 -6 22 -5 22 7 0 8 -4 12 -10 9 -5
-3 -10 -2 -10 3 0 5 -7 9 -15 9 -9 0 -14 -5 -12 -10z"/>
<path d="M2310 2143 c0 -6 -8 -9 -17 -7 -11 3 -23 -4 -31 -17 -15 -23 -10 -35
10 -25 48 25 56 33 47 47 -5 8 -9 9 -9 2z"/>
<path d="M3001 2524 c0 -11 3 -14 6 -6 3 7 2 16 -1 19 -3 4 -6 -2 -5 -13z"/>
<path d="M3001 2420 c0 -8 4 -22 9 -30 12 -18 12 -2 0 25 -6 13 -9 15 -9 5z"/>
<path d="M2032 2293 c1 -26 4 -39 6 -28 l5 20 8 -20 c6 -16 8 -13 6 13 -1 17
-5 32 -10 32 -4 0 -6 4 -2 9 3 5 1 12 -4 16 -6 3 -10 -13 -9 -42z"/>
<path d="M2072 2320 c0 -14 2 -19 5 -12 2 6 2 18 0 25 -3 6 -5 1 -5 -13z"/>
<path d="M2847 2140 c-24 -34 -21 -48 4 -22 11 13 19 28 17 34 -3 7 -12 1 -21
-12z"/>
<path d="M2831 2024 c0 -11 3 -14 6 -6 3 7 2 16 -1 19 -3 4 -6 -2 -5 -13z"/>
<path d="M2937 2023 c-9 -17 -17 -68 -9 -55 5 8 13 13 18 13 11 -2 14 38 3 44
-4 3 -10 2 -12 -2z"/>
<path d="M2827 1933 c-4 -3 -7 -16 -6 -27 0 -19 1 -19 10 3 10 24 8 36 -4 24z"/>
<path d="M1823 2152 c-1 -10 5 -19 12 -19 10 0 11 5 4 19 -5 10 -11 18 -12 18
-2 0 -3 -8 -4 -18z"/>
<path d="M1855 2121 c-3 -5 -1 -12 5 -16 5 -3 10 1 10 9 0 18 -6 21 -15 7z"/>
<path d="M1750 2015 c0 -8 29 -12 39 -5 9 5 4 8 -13 8 -14 0 -26 -2 -26 -3z"/>
<path d="M1876 1894 c-5 -14 -4 -15 9 -4 17 14 19 20 6 20 -5 0 -12 -7 -15
-16z"/>
<path d="M1785 1800 c-3 -6 1 -7 9 -4 18 7 21 14 7 14 -6 0 -13 -4 -16 -10z"/>
<path d="M1951 1744 c0 -11 3 -14 6 -6 3 7 2 16 -1 19 -3 4 -6 -2 -5 -13z"/>
<path d="M2367 2044 c-4 -4 -7 -17 -7 -28 0 -12 -7 -34 -15 -50 -18 -33 -18
-36 -5 -36 18 0 53 81 43 102 -5 11 -12 16 -16 12z"/>
<path d="M2386 1964 c-9 -23 -2 -28 13 -10 7 8 8 17 3 20 -6 3 -13 -1 -16 -10z"/>
<path d="M2306 1893 c-3 -3 -6 -21 -6 -38 0 -18 -7 -38 -15 -45 -17 -14 -20
-30 -5 -30 11 0 50 72 50 94 0 17 -14 28 -24 19z"/>
<path d="M2326 1814 c-10 -25 1 -29 14 -5 6 12 7 21 1 21 -5 0 -12 -7 -15 -16z"/>
<path d="M2360 1790 c0 -5 5 -10 11 -10 5 0 7 5 4 10 -3 6 -8 10 -11 10 -2 0
-4 -4 -4 -10z"/>
<path d="M2515 1838 c8 -25 35 -59 35 -43 0 6 -7 19 -15 29 -8 10 -12 23 -9
27 3 5 0 9 -6 9 -7 0 -9 -8 -5 -22z"/>
<path d="M2510 1795 c0 -3 7 -22 15 -42 17 -40 20 -83 6 -83 -6 0 -6 -12 -1
-31 11 -39 24 -54 15 -18 -4 16 -2 30 4 33 17 11 13 98 -5 124 -14 20 -34 30
-34 17z"/>
<path d="M2769 1603 c-7 -16 -15 -31 -17 -35 -2 -5 0 -8 5 -8 9 0 35 61 29 67
-1 2 -9 -9 -17 -24z"/>
<path d="M2340 1376 c0 -7 8 -20 18 -27 14 -11 15 -11 5 0 -6 7 -9 20 -6 27 3
8 0 14 -6 14 -6 0 -11 -6 -11 -14z"/>
<path d="M2385 1360 c3 -5 8 -10 11 -10 2 0 4 5 4 10 0 6 -5 10 -11 10 -5 0
-7 -4 -4 -10z"/>
<path d="M2230 1336 c0 -2 8 -10 18 -17 15 -13 16 -12 3 4 -13 16 -21 21 -21
13z"/>
<path d="M2300 1316 c0 -9 5 -16 10 -16 6 0 10 4 10 9 0 6 -4 13 -10 16 -5 3
-10 -1 -10 -9z"/>
<path d="M2395 1250 c-8 -13 -1 -24 14 -19 6 3 7 10 2 18 -6 10 -10 10 -16 1z"/>
<path d="M2276 1141 c-5 -8 -2 -20 8 -29 17 -17 19 -9 7 22 -6 15 -10 16 -15
7z"/>
<path d="M2384 1075 c4 -24 16 -30 16 -7 0 12 -4 22 -9 22 -5 0 -8 -7 -7 -15z"/>
</g>
</svg>
